<svg version="1.1" id="Layer_1" xmlns="http://www.w3.org/2000/svg" xmlns:xlink="http://www.w3.org/1999/xlink" x="0px" y="0px"
	 width="100%" viewBox="253 28 521 521" enable-background="new 0 0 1024 559" xml:space="preserve">
<path fill="#63326E" opacity="1.000000" stroke="none" 
	d="
M345.932739,303.754822 
	C362.213470,292.487152 378.496918,281.223389 394.772675,269.948547 
	C398.026825,267.694305 400.995361,264.819977 404.545227,263.245087 
	C411.257141,260.267365 412.054321,254.661240 412.891388,248.465332 
	C414.260773,238.329544 416.331970,228.290817 417.882324,218.176666 
	C419.958527,204.631668 421.738953,191.041443 423.796021,177.493362 
	C426.064514,162.552567 428.502411,147.637482 431.328735,132.120270 
	C432.873169,126.914238 433.955444,122.299126 435.037720,117.684021 
	C435.280975,117.711151 435.524200,117.738274 435.767456,117.765396 
	C435.912109,119.485542 436.056793,121.205681 436.201447,122.925827 
	C436.995514,121.151337 436.930298,119.404633 437.006836,117.664162 
	C437.341431,110.055557 437.694031,102.447571 438.087433,94.841805 
	C438.293060,90.867607 438.596832,86.898499 438.856293,82.927086 
	C439.988922,74.893234 441.014984,66.841713 442.341858,58.840061 
	C442.615570,57.189659 443.793274,55.537876 444.934906,54.215210 
	C447.097382,51.709816 449.648560,49.541748 451.834686,47.054615 
	C455.895996,42.434185 460.229858,39.248650 467.059845,39.617565 
	C472.701385,39.922283 478.434204,38.537876 484.890289,38.274040 
	C502.773193,38.759159 519.892334,38.872181 537.236572,39.015823 
	C537.461548,39.046448 537.913818,39.088112 537.982666,39.389969 
	C538.658203,40.133560 539.264771,40.575298 539.993286,41.241440 
	C540.384338,41.668846 540.653442,41.871857 540.972595,42.426880 
	C541.632263,43.955238 542.144348,45.195667 542.867676,46.297379 
	C547.104858,52.750832 550.827515,59.215622 550.168640,67.521057 
	C549.793396,72.251541 550.746094,77.095032 551.179321,81.880516 
	C552.432312,95.723358 553.770935,109.558586 554.985657,123.404716 
	C555.781860,132.480194 556.351013,141.575623 557.147522,150.651062 
	C558.377502,164.665558 559.704529,178.671585 561.010803,192.679306 
	C561.917236,202.398651 562.926147,212.108932 563.762878,221.834122 
	C564.495483,230.349075 565.052002,238.879181 565.676636,247.272064 
	C549.133972,252.199051 532.931702,257.024658 516.729431,261.850250 
	C521.787903,263.036896 526.679016,263.426605 531.545837,264.016968 
	C542.828430,265.385559 553.557678,268.666138 563.895447,273.377411 
	C566.750916,274.678772 567.398743,276.701385 566.921265,279.409393 
	C564.739502,291.782593 562.497498,304.145172 560.315857,316.518372 
	C557.185181,334.273773 554.107300,352.038452 550.967529,369.792236 
	C549.677917,377.084686 548.285950,384.359009 546.867554,392.036743 
	C544.049927,391.182007 541.899414,390.287415 539.660828,389.892609 
	C530.075989,388.202179 520.470520,385.428009 510.862396,385.386200 
	C499.832336,385.338135 488.942566,388.167236 478.762390,393.129669 
	C457.007965,403.734131 443.011047,420.203949 438.958466,444.476166 
	C438.291260,448.472260 437.427460,452.435547 436.654541,456.414001 
	C436.654541,456.414001 436.665100,456.210358 436.793091,455.777527 
	C436.135681,452.850006 435.350281,450.355377 434.604126,447.540405 
	C434.056671,445.825897 433.469940,444.431793 432.905823,442.643646 
	C425.747223,411.924316 418.566040,381.598999 411.118561,350.149170 
	C409.275513,367.432159 407.182098,383.531921 406.009705,399.698486 
	C405.501404,406.708038 401.215698,407.954712 396.017059,409.530731 
	C359.350250,420.646545 322.723145,431.893311 285.728882,443.031189 
	C284.232117,441.606171 282.777832,440.406677 281.995087,438.865997 
	C272.763214,420.694275 266.547974,401.769287 268.363739,380.936523 
	C269.028473,378.580078 269.436401,376.297699 269.614349,373.997559 
	C269.734467,372.444641 269.328918,370.841980 269.517029,369.305420 
	C269.823334,366.803131 270.422791,364.336670 270.898529,361.855103 
	C270.898529,361.855103 270.942017,361.950714 271.268494,361.959900 
	C276.800171,359.004669 281.494293,355.692963 280.660980,348.625702 
	C280.660980,348.625702 281.014801,348.768951 281.255066,348.818481 
	C282.884369,348.619354 284.494507,348.738922 285.625183,348.059967 
	C291.372162,344.609131 296.994934,340.951416 302.480194,337.480652 
	C304.495422,335.600006 306.544800,333.687500 309.165070,331.242218 
	C309.173798,331.359192 309.088226,330.212006 309.002625,329.064789 
	C309.002625,329.064789 309.135529,328.827118 309.693237,328.878296 
	C311.178619,328.189270 312.106293,327.449066 313.033936,326.708862 
	C313.452820,326.394196 313.871704,326.079498 314.802551,326.053772 
	C317.005951,326.542480 318.697418,326.742188 320.704407,326.979187 
	C320.831451,324.899231 320.920288,323.444916 321.383911,321.952942 
	C323.715088,320.931732 325.677246,319.959595 327.626038,318.961304 
	C329.567505,317.966766 331.394073,316.534088 333.451782,316.027161 
	C337.126251,315.121948 339.029938,313.535095 337.550781,309.565948 
	C337.550781,309.565948 337.632080,309.567444 337.925415,309.634277 
	C338.447266,309.391541 338.675812,309.081940 338.904327,308.772369 
	C338.904327,308.772369 338.909393,308.893585 339.296265,308.916809 
	C342.731110,309.165771 345.826721,309.449463 344.808228,304.727600 
	C344.808228,304.727600 344.879242,304.863831 345.094482,304.798706 
	C345.517426,304.407318 345.725098,304.081055 345.932739,303.754822 
z"/>
<path fill="#44204C" opacity="1.000000" stroke="none" 
	d="
M436.658081,456.594147 
	C437.427460,452.435547 438.291260,448.472260 438.958466,444.476166 
	C443.011047,420.203949 457.007965,403.734131 478.762390,393.129669 
	C488.942566,388.167236 499.832336,385.338135 510.862396,385.386200 
	C520.470520,385.428009 530.075989,388.202179 539.660828,389.892609 
	C541.899414,390.287415 544.049927,391.182007 546.867554,392.036743 
	C548.285950,384.359009 549.677917,377.084686 550.967529,369.792236 
	C554.107300,352.038452 557.185181,334.273773 560.315857,316.518372 
	C562.497498,304.145172 564.739502,291.782593 566.921265,279.409393 
	C567.398743,276.701385 566.750916,274.678772 563.895447,273.377411 
	C553.557678,268.666138 542.828430,265.385559 531.545837,264.016968 
	C526.679016,263.426605 521.787903,263.036896 516.729431,261.850250 
	C532.931702,257.024658 549.133972,252.199051 565.676636,247.272064 
	C565.052002,238.879181 564.495483,230.349075 563.762878,221.834122 
	C562.926147,212.108932 561.917236,202.398651 561.010803,192.679306 
	C559.704529,178.671585 558.377502,164.665558 557.147522,150.651062 
	C556.351013,141.575623 555.781860,132.480194 554.985657,123.404716 
	C553.770935,109.558586 552.432312,95.723358 551.179321,81.880516 
	C550.746094,77.095032 549.793396,72.251541 550.168640,67.521057 
	C550.827515,59.215622 547.104858,52.750832 542.867676,46.297379 
	C542.144348,45.195667 541.632263,43.955238 541.377075,42.384716 
	C545.477051,41.385067 549.513550,39.587772 552.908813,40.416794 
	C560.490356,42.267948 568.937256,42.006298 575.207031,47.874695 
	C575.207031,47.874695 575.097900,47.891048 575.117310,48.218761 
	C575.966248,51.993202 576.843628,55.393337 581.516357,55.097248 
	C581.516357,55.097248 581.869751,55.130939 581.948181,55.699883 
	C582.512939,64.102249 582.999268,71.935684 583.426880,78.824287 
	C584.338562,78.062584 585.583191,77.022720 586.827881,75.982841 
	C590.251770,97.645058 593.696228,119.304054 597.093567,140.970444 
	C600.181213,160.661926 603.217834,180.361404 605.923645,200.727264 
	C605.732910,207.300552 605.678650,213.223831 606.217834,219.092590 
	C606.345154,220.478516 608.469360,221.680969 609.674927,222.967804 
	C610.836426,230.641647 611.799011,238.352493 613.217407,245.978561 
	C614.534546,253.060303 615.279175,259.968475 623.234009,264.255066 
	C631.864136,268.905609 639.371521,275.639893 647.810120,281.974609 
	C649.375732,282.937195 650.499756,283.390686 651.623779,283.844208 
	C651.623779,283.844208 651.879761,283.824066 651.955444,284.346832 
	C653.269287,285.505066 654.507446,286.140533 655.745605,286.776001 
	C655.745605,286.776001 655.863220,286.770813 656.049927,287.068756 
	C656.597656,287.499512 656.958801,287.632294 657.319885,287.765106 
	C657.319885,287.765106 657.171570,287.800598 657.260132,288.024445 
	C657.708008,288.363708 658.067322,288.479126 658.426697,288.594543 
	C658.426697,288.594543 658.183044,288.515076 658.188965,288.937683 
	C658.766907,293.404449 661.662903,292.796295 664.418518,292.469177 
	C664.418518,292.469177 664.428406,292.563202 664.319641,292.962982 
	C664.490906,297.996521 666.442139,299.126190 673.334717,298.644897 
	C673.334717,298.644897 673.209595,298.740143 673.319641,299.017517 
	C673.876221,299.468781 674.322815,299.642670 674.769348,299.816589 
	C674.769348,299.816589 674.848083,299.771545 675.044434,300.053040 
	C675.616760,300.455200 675.992798,300.575897 676.368774,300.696625 
	C676.368774,300.696625 676.173096,300.765167 676.155090,301.107849 
	C676.205078,305.398010 679.212219,303.551849 681.077393,303.956696 
	C681.077393,303.956696 681.007812,303.989990 681.054016,304.347412 
	C681.623352,306.396240 682.146484,308.087646 682.290100,308.551941 
	C685.605103,310.462708 687.854736,311.996765 690.297241,313.106201 
	C693.245911,314.445526 696.357971,315.424896 699.399353,316.560028 
	C699.399353,316.560028 699.407166,316.930298 699.287964,317.178772 
	C698.822449,323.110931 702.824890,320.473267 705.351990,320.658722 
	C705.351990,320.658722 705.023438,320.875824 705.120789,321.143585 
	C706.253540,321.830841 707.288879,322.250336 708.324280,322.669800 
	C708.324280,322.669800 708.192566,322.724823 708.287598,322.992523 
	C708.992432,323.484833 709.602356,323.709442 710.212219,323.934082 
	C710.484375,323.838379 710.731567,323.882507 711.037598,324.638794 
	C712.552185,325.901703 713.983093,326.592224 715.414001,327.282745 
	C715.414001,327.282745 715.560120,327.384460 715.455200,327.807190 
	C716.528625,329.864502 717.588623,331.604095 718.919434,333.103210 
	C720.176880,334.519775 721.653015,335.769257 723.158325,336.929596 
	C724.232117,337.757355 725.476379,338.394318 726.710022,338.978180 
	C729.161133,340.138245 731.612122,341.325409 734.151062,342.263641 
	C735.827209,342.883118 737.656616,343.088074 739.417419,343.478607 
	C739.305908,343.638428 739.194458,343.798218 739.229126,344.100616 
	C740.362915,344.722473 741.350525,345.201752 742.338135,345.681030 
	C742.338135,345.681030 742.193115,345.740295 742.283875,345.997620 
	C742.981567,346.456207 743.588440,346.657440 744.195374,346.858673 
	C744.195374,346.858673 744.096252,346.902039 744.192505,347.119995 
	C744.629578,347.484436 744.970337,347.630920 745.311157,347.777435 
	C745.311157,347.777435 745.194824,347.811584 745.144104,348.143005 
	C745.447754,349.521912 745.632263,350.670471 746.185303,351.599670 
	C748.917358,356.189514 751.741333,360.724731 754.545532,365.271393 
	C755.324890,366.535065 756.147705,367.771973 756.972351,369.410034 
	C757.347168,371.527649 757.700256,373.256378 758.033447,375.420013 
	C758.010620,383.261047 758.494324,390.706268 757.902832,398.065063 
	C756.686096,413.202606 750.529236,426.843781 743.735413,440.160736 
	C743.146118,441.315704 740.434875,442.352112 739.086853,441.999634 
	C730.288513,439.699158 721.582642,437.038940 712.868652,434.422729 
	C697.822632,429.905426 682.780212,425.375488 667.759705,420.774261 
	C653.488586,416.402527 639.225220,412.001495 625.024902,407.408020 
	C623.469543,406.904846 621.379883,405.181580 621.188599,403.796234 
	C619.877747,394.305847 619.070190,384.747375 617.975647,375.225189 
	C617.083740,367.465912 616.018188,359.726593 614.854126,350.602844 
	C607.684082,382.390533 600.848022,412.697540 593.749756,443.228973 
	C593.349243,444.353546 593.210938,445.253723 593.072632,446.153870 
	C593.072632,446.153870 593.033081,446.048706 592.806152,446.188477 
	C592.404541,446.934052 592.229858,447.539886 592.055176,448.145721 
	C592.055237,448.145721 592.038635,448.046112 591.752075,448.125549 
	C590.002014,449.283600 587.178650,450.175018 590.946472,451.973999 
	C589.225769,464.053467 585.954163,475.618927 579.136047,485.896576 
	C560.072632,514.632507 532.627441,524.368286 499.555511,519.916565 
	C486.663757,518.181274 474.548798,513.427185 464.756378,504.272583 
	C459.892853,499.725769 455.286346,494.904053 450.268188,489.584320 
	C449.498169,485.975769 449.023560,482.989563 448.571594,480.145874 
	C447.925598,481.628052 447.238007,483.205658 446.550415,484.783264 
	C446.550415,484.783264 446.391663,484.612885 446.535736,484.149536 
	C443.849854,475.280304 441.032837,466.869995 438.161163,458.478424 
	C437.967285,457.911926 437.360687,457.486633 436.946014,456.995667 
	C436.946014,456.995667 436.661652,456.774292 436.658081,456.594147 
M517.384094,410.996826 
	C508.231476,410.845306 499.303345,411.603455 490.551453,414.886810 
	C472.367462,421.708710 455.880127,440.449646 456.694183,462.199341 
	C457.412842,481.398438 466.247070,495.180817 481.829620,504.087463 
	C504.602264,517.103821 527.928040,516.728394 549.695740,501.046997 
	C566.818054,488.712158 572.848328,472.033112 569.473022,452.674988 
	C565.025208,427.165466 541.525574,412.354340 517.384094,410.996826 
z"/>
<path fill="#271130" opacity="1.000000" stroke="none" 
	d="
M594.011963,443.004547 
	C600.848022,412.697540 607.684082,382.390533 614.854126,350.602844 
	C616.018188,359.726593 617.083740,367.465912 617.975647,375.225189 
	C619.070190,384.747375 619.877747,394.305847 621.188599,403.796234 
	C621.379883,405.181580 623.469543,406.904846 625.024902,407.408020 
	C639.225220,412.001495 653.488586,416.402527 667.759705,420.774261 
	C682.780212,425.375488 697.822632,429.905426 712.868652,434.422729 
	C721.582642,437.038940 730.288513,439.699158 739.086853,441.999634 
	C740.434875,442.352112 743.146118,441.315704 743.735413,440.160736 
	C750.529236,426.843781 756.686096,413.202606 757.902832,398.065063 
	C758.494324,390.706268 758.010620,383.261047 758.397827,375.502808 
	C761.532043,381.072083 762.939514,387.232635 761.553040,393.728577 
	C760.941284,396.594940 760.667542,399.021667 764.160522,400.058655 
	C764.183350,401.121582 764.206177,402.184509 763.704285,403.713440 
	C762.791687,404.840881 761.977783,405.579071 762.080933,406.152161 
	C763.278137,412.801758 758.465332,417.415192 755.989990,422.569244 
	C753.527161,427.697266 749.900208,432.043121 752.113708,438.162140 
	C752.113708,438.162140 752.050781,438.077820 751.741333,438.082245 
	C749.395264,441.171844 747.358643,444.256989 745.322021,447.342163 
	C745.322021,447.342194 745.224854,447.197449 745.009644,447.289032 
	C744.688049,447.731201 744.581604,448.081787 744.475098,448.432373 
	C744.336304,448.295197 744.197510,448.157990 743.962524,448.224548 
	C743.766541,448.767120 743.666809,449.105957 743.567078,449.444794 
	C743.567078,449.444794 743.465576,449.456055 743.076355,449.353516 
	C737.076843,449.590088 736.039429,454.903961 733.057617,458.102631 
	C733.057617,458.102631 733.052002,458.014313 732.705444,458.031860 
	C731.384705,458.861389 730.410583,459.673370 729.436401,460.485352 
	C729.319885,460.321106 729.203308,460.156921 728.854187,460.123535 
	C725.516357,461.031403 721.277832,460.197845 721.293274,465.410370 
	C721.293274,465.410370 721.130310,465.228394 720.822388,465.186188 
	C709.167297,468.439941 697.677124,467.239319 686.263000,465.892334 
	C678.708740,465.000854 672.210205,460.009949 664.094910,460.396454 
	C654.722534,460.842865 646.831848,453.143005 637.001831,454.725983 
	C635.746277,454.928162 633.700806,454.134338 632.983521,453.120850 
	C629.018738,447.518860 623.333130,449.317017 618.013794,449.091125 
	C614.687683,448.949890 610.112366,449.336304 608.333496,447.415405 
	C604.095703,442.839203 599.273682,442.819397 594.011963,443.004547 
z"/>
<path fill="#2D1238" opacity="1.000000" stroke="none" 
	d="
M286.083344,443.098267 
	C322.723145,431.893311 359.350250,420.646545 396.017059,409.530731 
	C401.215698,407.954712 405.501404,406.708038 406.009705,399.698486 
	C407.182098,383.531921 409.275513,367.432159 411.118561,350.149170 
	C418.566040,381.598999 425.747223,411.924316 432.513855,442.642395 
	C428.222656,444.563873 424.459473,446.617584 420.440186,447.485565 
	C415.641510,448.521942 410.617004,448.484436 405.704193,449.035767 
	C403.970459,449.230316 402.171112,449.546783 400.592102,450.240753 
	C398.444580,451.184601 396.472534,452.531860 394.439087,453.729706 
	C393.283386,454.410492 392.155304,455.138275 391.014771,455.844910 
	C384.320160,457.196838 377.625580,458.548767 370.181152,459.826721 
	C368.482544,459.592316 367.515106,459.223022 366.587921,459.305664 
	C360.861633,459.815918 355.144287,460.426849 349.424377,461.008423 
	C348.991730,461.052399 348.562286,461.128113 348.041168,461.201813 
	C348.637299,461.996216 349.142029,462.668793 349.725586,463.446442 
	C348.891266,463.922943 348.356323,464.423065 347.744232,464.549469 
	C333.775696,467.433563 319.816376,469.457001 305.911377,464.139069 
	C304.578705,463.629364 303.052460,463.625854 301.616058,463.387329 
	C301.616058,463.387329 301.756165,463.326385 301.682404,463.060577 
	C301.021423,462.563965 300.434204,462.333130 299.846985,462.102325 
	C299.846985,462.102325 299.942993,462.069855 299.892090,461.747437 
	C298.826691,460.998657 297.812195,460.572357 296.797699,460.146057 
	C296.797699,460.146027 296.932251,460.117554 296.778595,459.891174 
	C296.235504,459.480225 295.846069,459.295624 295.456665,459.110992 
	C295.456665,459.110992 295.180206,459.209778 295.096741,458.728180 
	C294.440399,457.101715 293.941040,455.912445 293.281342,454.819977 
	C290.911316,450.895050 288.487091,447.002838 286.083344,443.098267 
z"/>
<path fill="#422249" opacity="1.000000" stroke="none" 
	d="
M285.728882,443.031189 
	C288.487091,447.002838 290.911316,450.895050 293.281342,454.819977 
	C293.941040,455.912445 294.440399,457.101715 295.007202,458.611877 
	C284.254150,453.858551 277.670441,444.604553 272.337341,434.668762 
	C263.482391,418.171661 258.991058,400.678223 263.840393,381.850342 
	C264.144043,380.671356 264.909882,379.611450 266.078857,378.300171 
	C267.134338,379.070465 267.571655,380.036743 268.009003,381.003052 
	C266.547974,401.769287 272.763214,420.694275 281.995087,438.865997 
	C282.777832,440.406677 284.232117,441.606171 285.728882,443.031189 
z"/>
<path fill="#1D1022" opacity="1.000000" stroke="none" 
	d="
M593.749756,443.228973 
	C599.273682,442.819397 604.095703,442.839203 608.333496,447.415405 
	C610.112366,449.336304 614.687683,448.949890 618.013794,449.091125 
	C623.333130,449.317017 629.018738,447.518860 632.983521,453.120850 
	C633.700806,454.134338 635.746277,454.928162 637.001831,454.725983 
	C646.831848,453.143005 654.722534,460.842865 664.094910,460.396454 
	C672.210205,460.009949 678.708740,465.000854 686.263000,465.892334 
	C697.677124,467.239319 709.167297,468.439941 720.926270,465.250336 
	C711.918457,471.926025 701.532959,471.360901 691.143188,468.972504 
	C659.957275,461.803589 628.826416,454.394653 597.675598,447.073151 
	C596.386475,446.770172 595.112000,446.404968 593.451660,446.111328 
	C593.210938,445.253723 593.349243,444.353546 593.749756,443.228973 
z"/>
<path fill="#1D1022" opacity="1.000000" stroke="none" 
	d="
M301.819153,463.658783 
	C303.052460,463.625854 304.578705,463.629364 305.911377,464.139069 
	C319.816376,469.457001 333.775696,467.433563 347.744232,464.549469 
	C348.356323,464.423065 348.891266,463.922943 349.725586,463.446442 
	C349.142029,462.668793 348.637299,461.996216 348.041168,461.201813 
	C348.562286,461.128113 348.991730,461.052399 349.424377,461.008423 
	C355.144287,460.426849 360.861633,459.815918 366.587921,459.305664 
	C367.515106,459.223022 368.482544,459.592316 369.785217,459.903931 
	C363.519989,461.813812 356.934967,463.716583 350.272797,465.293335 
	C342.553375,467.120270 334.829193,469.113037 326.991669,470.206421 
	C317.999268,471.460876 309.611847,468.949524 301.819153,463.658783 
z"/>
<path fill="#1D1022" opacity="1.000000" stroke="none" 
	d="
M391.415497,455.871094 
	C392.155304,455.138275 393.283386,454.410492 394.439087,453.729706 
	C396.472534,452.531860 398.444580,451.184601 400.592102,450.240753 
	C402.171112,449.546783 403.970459,449.230316 405.704193,449.035767 
	C410.617004,448.484436 415.641510,448.521942 420.440186,447.485565 
	C424.459473,446.617584 428.222656,444.563873 432.491272,443.036438 
	C433.469940,444.431793 434.056671,445.825897 434.586914,447.555511 
	C434.530487,447.890991 434.497498,447.922943 434.497498,447.922943 
	C433.310669,447.496246 431.994263,446.495667 430.956726,446.730011 
	C417.886475,449.682159 404.856476,452.812500 391.415497,455.871094 
z"/>
<path fill="#1D1022" opacity="1.000000" stroke="none" 
	d="
M752.390137,437.957611 
	C749.900208,432.043121 753.527161,427.697266 755.989990,422.569244 
	C758.465332,417.415192 763.278137,412.801758 762.080933,406.152161 
	C761.977783,405.579071 762.791687,404.840881 763.556702,404.090515 
	C762.883728,416.155304 758.642456,427.243713 752.390137,437.957611 
z"/>
<path fill="#502857" opacity="1.000000" stroke="none" 
	d="
M438.626190,83.236778 
	C438.596832,86.898499 438.293060,90.867607 438.087433,94.841805 
	C437.694031,102.447571 437.341431,110.055557 437.006836,117.664162 
	C436.930298,119.404633 436.995514,121.151337 436.201447,122.925827 
	C436.056793,121.205681 435.912109,119.485542 435.767456,117.765396 
	C435.524200,117.738274 435.280975,117.711151 435.037720,117.684021 
	C433.955444,122.299126 432.873169,126.914238 431.484741,131.738647 
	C433.584442,115.814110 435.990265,99.680290 438.626190,83.236778 
z"/>
<path fill="#2D1238" opacity="1.000000" stroke="none" 
	d="
M575.085205,47.558121 
	C568.937256,42.006298 560.490356,42.267948 552.908813,40.416794 
	C549.513550,39.587772 545.477051,41.385067 541.327026,42.032700 
	C540.653442,41.871857 540.384338,41.668846 540.328857,41.195713 
	C540.830322,40.497677 541.118103,40.069771 541.405823,39.641861 
	C540.241821,39.457275 539.077820,39.272694 537.913818,39.088112 
	C537.913818,39.088112 537.461548,39.046448 537.232605,38.773182 
	C537.003662,38.499916 537.008057,38.014309 537.008057,38.014309 
	C546.828674,38.694271 556.729675,38.854187 566.423462,40.354023 
	C569.550476,40.837845 572.132141,44.845760 575.085205,47.558121 
z"/>
<path fill="#58335E" opacity="1.000000" stroke="none" 
	d="
M308.671265,329.149872 
	C309.088226,330.212006 309.173798,331.359192 309.165070,331.242218 
	C306.544800,333.687500 304.495422,335.600006 302.480194,337.480652 
	C296.994934,340.951416 291.372162,344.609131 285.625183,348.059967 
	C284.494507,348.738922 282.884369,348.619354 281.072876,348.761963 
	C289.880280,342.182281 299.110107,335.708618 308.671265,329.149872 
z"/>
<path fill="#1D1022" opacity="1.000000" stroke="none" 
	d="
M764.318237,399.772644 
	C760.667542,399.021667 760.941284,396.594940 761.553040,393.728577 
	C762.939514,387.232635 761.532043,381.072083 758.417603,375.067871 
	C757.700256,373.256378 757.347168,371.527649 756.990845,369.000488 
	C757.100891,367.393829 757.214355,366.585632 757.327759,365.777466 
	C762.452209,376.432434 764.714050,387.694458 764.318237,399.772644 
z"/>
<path fill="#361F3D" opacity="1.000000" stroke="none" 
	d="
M739.197632,343.238556 
	C737.656616,343.088074 735.827209,342.883118 734.151062,342.263641 
	C731.612122,341.325409 729.161133,340.138245 726.710022,338.978180 
	C725.476379,338.394318 724.232117,337.757355 723.158325,336.929596 
	C721.653015,335.769257 720.176880,334.519775 718.919434,333.103210 
	C717.588623,331.604095 716.528625,329.864502 715.530762,327.854248 
	C723.466797,332.651886 731.222351,337.825195 739.197632,343.238556 
z"/>
<path fill="#361F3D" opacity="1.000000" stroke="none" 
	d="
M757.323425,365.808838 
	C757.214355,366.585632 757.100891,367.393829 756.968994,368.611572 
	C756.147705,367.771973 755.324890,366.535065 754.545532,365.271393 
	C751.741333,360.724731 748.917358,356.189514 746.185303,351.599670 
	C745.632263,350.670471 745.447754,349.521912 745.169434,348.087952 
	C751.680847,351.437439 754.356262,357.798828 756.725586,364.789459 
	C756.852051,365.446747 757.087097,365.612732 757.322083,365.778687 
	C757.322083,365.778687 757.319092,365.840179 757.323425,365.808838 
z"/>
<path fill="#2D1238" opacity="1.000000" stroke="none" 
	d="
M586.852905,75.561874 
	C585.583191,77.022720 584.338562,78.062584 583.426880,78.824287 
	C582.999268,71.935684 582.512939,64.102249 581.964966,55.876579 
	C582.962952,57.937099 584.403564,60.301941 584.994690,62.862862 
	C585.923401,66.886070 586.279419,71.041466 586.852905,75.561874 
z"/>
<path fill="#361F3D" opacity="1.000000" stroke="none" 
	d="
M436.924469,457.411560 
	C437.360687,457.486633 437.967285,457.911926 438.161163,458.478424 
	C441.032837,466.869995 443.849854,475.280304 446.491730,484.041687 
	C443.170074,475.540649 440.036499,466.684021 436.924469,457.411560 
z"/>
<path fill="#361F3D" opacity="1.000000" stroke="none" 
	d="
M699.187256,316.306915 
	C696.357971,315.424896 693.245911,314.445526 690.297241,313.106201 
	C687.854736,311.996765 685.605103,310.462708 682.290100,308.551941 
	C682.146484,308.087646 681.623352,306.396240 681.070618,304.312592 
	C687.019043,307.964844 692.997070,312.009338 699.187256,316.306915 
z"/>
<path fill="#58335E" opacity="1.000000" stroke="none" 
	d="
M280.333527,348.709412 
	C281.494293,355.692963 276.800171,359.004669 271.220428,361.938721 
	C273.899323,357.536591 276.952698,353.164856 280.333527,348.709412 
z"/>
<path fill="#502857" opacity="1.000000" stroke="none" 
	d="
M337.244965,309.703705 
	C339.029938,313.535095 337.126251,315.121948 333.451782,316.027161 
	C331.394073,316.534088 329.567505,317.966766 327.626038,318.961304 
	C325.677246,319.959595 323.715088,320.931732 321.369781,321.659363 
	C320.961426,321.208313 320.942017,321.013245 320.922638,320.818146 
	C326.261475,317.159241 331.600311,313.500336 337.244965,309.703705 
z"/>
<path fill="#1D1022" opacity="1.000000" stroke="none" 
	d="
M609.667603,222.556915 
	C608.469360,221.680969 606.345154,220.478516 606.217834,219.092590 
	C605.678650,213.223831 605.732910,207.300552 605.869263,201.153168 
	C607.332275,207.988113 608.496277,215.067062 609.667603,222.556915 
z"/>
<path fill="#44204C" opacity="1.000000" stroke="none" 
	d="
M536.549683,37.905128 
	C537.008057,38.014309 537.003662,38.499916 537.007568,38.742561 
	C519.892334,38.872181 502.773193,38.759159 485.349274,38.369400 
	C485.930389,38.024094 486.816254,37.955524 488.120636,37.953152 
	C488.539154,38.019344 488.498505,38.043156 488.498505,38.043156 
	C504.362793,37.960754 520.227112,37.878353 536.549683,37.905128 
z"/>
<path fill="#58335E" opacity="1.000000" stroke="none" 
	d="
M268.363739,380.936523 
	C267.571655,380.036743 267.134338,379.070465 266.352234,378.054321 
	C267.466125,372.786102 268.924866,367.567719 270.641052,362.102234 
	C270.422791,364.336670 269.823334,366.803131 269.517029,369.305420 
	C269.328918,370.841980 269.734467,372.444641 269.614349,373.997559 
	C269.436401,376.297699 269.028473,378.580078 268.363739,380.936523 
z"/>
<path fill="#1D1022" opacity="1.000000" stroke="none" 
	d="
M733.403015,458.054779 
	C736.039429,454.903961 737.076843,449.590088 743.079224,449.404480 
	C740.230347,452.374298 736.989380,455.190613 733.403015,458.054779 
z"/>
<path fill="#361F3D" opacity="1.000000" stroke="none" 
	d="
M673.150452,298.363708 
	C666.442139,299.126190 664.490906,297.996521 664.364258,292.947174 
	C667.333801,294.381897 670.149963,296.232208 673.150452,298.363708 
z"/>
<path fill="#58335E" opacity="1.000000" stroke="none" 
	d="
M320.672577,320.925140 
	C320.942017,321.013245 320.961426,321.208313 320.994934,321.696960 
	C320.920288,323.444916 320.831451,324.899231 320.704407,326.979187 
	C318.697418,326.742188 317.005951,326.542480 315.064911,326.015808 
	C315.679321,324.853668 316.543304,324.018433 317.931885,323.079407 
	C318.689819,322.670502 318.923218,322.365417 319.156616,322.060303 
	C319.578583,321.717560 320.000549,321.374847 320.672577,320.925140 
z"/>
<path fill="#2D1238" opacity="1.000000" stroke="none" 
	d="
M581.358765,54.837112 
	C576.843628,55.393337 575.966248,51.993202 575.131958,48.165581 
	C577.151855,50.048782 579.176514,52.312881 581.358765,54.837112 
z"/>
<path fill="#1D1022" opacity="1.000000" stroke="none" 
	d="
M745.615723,447.184875 
	C747.358643,444.256989 749.395264,441.171844 751.793091,438.091431 
	C750.072693,441.073334 747.991089,444.050476 745.615723,447.184875 
z"/>
<path fill="#1D1022" opacity="1.000000" stroke="none" 
	d="
M721.635498,465.324097 
	C721.277832,460.197845 725.516357,461.031403 729.024780,460.370514 
	C726.944580,462.070404 724.461121,463.654114 721.635498,465.324097 
z"/>
<path fill="#361F3D" opacity="1.000000" stroke="none" 
	d="
M705.183105,320.376678 
	C702.824890,320.473267 698.822449,323.110931 699.298523,316.993408 
	C701.290222,317.737915 703.152283,318.916260 705.183105,320.376678 
z"/>
<path fill="#502857" opacity="1.000000" stroke="none" 
	d="
M344.489807,304.838013 
	C345.826721,309.449463 342.731110,309.165771 339.238678,308.897705 
	C340.586639,307.553040 342.379028,306.250732 344.489807,304.838013 
z"/>
<path fill="#361F3D" opacity="1.000000" stroke="none" 
	d="
M446.655304,485.070190 
	C447.238007,483.205658 447.925598,481.628052 448.571594,480.145874 
	C449.023560,482.989563 449.498169,485.975769 449.979309,489.358887 
	C448.910645,488.289612 447.835419,486.823364 446.655304,485.070190 
z"/>
<path fill="#361F3D" opacity="1.000000" stroke="none" 
	d="
M664.199158,292.235474 
	C661.662903,292.796295 658.766907,293.404449 658.315491,288.958038 
	C660.284058,289.704407 662.131897,290.853088 664.199158,292.235474 
z"/>
<path fill="#361F3D" opacity="1.000000" stroke="none" 
	d="
M434.533356,448.293427 
	C434.497498,447.922943 434.530487,447.890991 434.547668,447.875854 
	C435.350281,450.355377 436.135681,452.850006 436.894592,455.767517 
	C436.101746,453.681549 435.335480,451.172729 434.533356,448.293427 
z"/>
<path fill="#361F3D" opacity="1.000000" stroke="none" 
	d="
M680.934937,303.658691 
	C679.212219,303.551849 676.205078,305.398010 676.233643,301.040161 
	C677.817627,301.540100 679.305054,302.450378 680.934937,303.658691 
z"/>
<path fill="#1D1022" opacity="1.000000" stroke="none" 
	d="
M591.109863,451.668884 
	C587.178650,450.175018 590.002014,449.283600 591.802551,448.126526 
	C591.850830,449.153351 591.562012,450.258575 591.109863,451.668884 
z"/>
<path fill="#361F3D" opacity="1.000000" stroke="none" 
	d="
M715.180786,327.068115 
	C713.983093,326.592224 712.552185,325.901703 711.133972,324.809143 
	C712.413635,325.222595 713.680542,326.038055 715.180786,327.068115 
z"/>
<path fill="#361F3D" opacity="1.000000" stroke="none" 
	d="
M655.557861,286.493378 
	C654.507446,286.140533 653.269287,285.505066 652.016235,284.459930 
	C653.124268,284.770447 654.247192,285.490601 655.557861,286.493378 
z"/>
<path fill="#1D1022" opacity="1.000000" stroke="none" 
	d="
M729.732178,460.371277 
	C730.410583,459.673370 731.384705,458.861389 732.738281,458.061523 
	C732.087769,458.801514 731.057861,459.529358 729.732178,460.371277 
z"/>
<path fill="#58335E" opacity="1.000000" stroke="none" 
	d="
M312.663757,326.681946 
	C312.106293,327.449066 311.178619,328.189270 309.828491,328.893829 
	C310.368591,328.123810 311.331085,327.389404 312.663757,326.681946 
z"/>
<path fill="#361F3D" opacity="1.000000" stroke="none" 
	d="
M742.187805,345.410950 
	C741.350525,345.201752 740.362915,344.722473 739.407349,343.868866 
	C740.305359,344.043304 741.171448,344.592072 742.187805,345.410950 
z"/>
<path fill="#361F3D" opacity="1.000000" stroke="none" 
	d="
M708.174011,322.398376 
	C707.288879,322.250336 706.253540,321.830841 705.273926,321.019806 
	C706.227722,321.127838 707.125732,321.627411 708.174011,322.398376 
z"/>
<path fill="#361F3D" opacity="1.000000" stroke="none" 
	d="
M651.411865,283.528809 
	C650.499756,283.390686 649.375732,282.937195 648.098022,282.127869 
	C649.029541,282.252502 650.114746,282.732941 651.411865,283.528809 
z"/>
<path fill="#1D1022" opacity="1.000000" stroke="none" 
	d="
M296.927338,460.438843 
	C297.812195,460.572357 298.826691,460.998657 299.871582,461.793762 
	C298.953644,461.685577 298.005310,461.208618 296.927338,460.438843 
z"/>
<path fill="#361F3D" opacity="1.000000" stroke="none" 
	d="
M744.029175,346.607300 
	C743.588440,346.657440 742.981567,346.456207 742.304810,345.922119 
	C742.777649,345.844849 743.320374,346.100372 744.029175,346.607300 
z"/>
<path fill="#1D1022" opacity="1.000000" stroke="none" 
	d="
M592.280823,447.937592 
	C592.229858,447.539886 592.404541,446.934052 592.861084,446.176575 
	C592.930725,446.593079 592.718628,447.161285 592.280823,447.937592 
z"/>
<path fill="#1D1022" opacity="1.000000" stroke="none" 
	d="
M299.961487,462.382812 
	C300.434204,462.333130 301.021423,462.563965 301.649719,463.129639 
	C301.152557,463.197418 300.614258,462.930359 299.961487,462.382812 
z"/>
<path fill="#502857" opacity="1.000000" stroke="none" 
	d="
M318.894928,322.116699 
	C318.923218,322.365417 318.689819,322.670502 318.231934,322.988861 
	C318.216003,322.725769 318.424622,322.449463 318.894928,322.116699 
z"/>
<path fill="#361F3D" opacity="1.000000" stroke="none" 
	d="
M710.028564,323.691071 
	C709.602356,323.709442 708.992432,323.484833 708.312256,322.925568 
	C708.776306,322.876617 709.310608,323.162323 710.028564,323.691071 
z"/>
<path fill="#1D1022" opacity="1.000000" stroke="none" 
	d="
M295.609558,459.397369 
	C295.846069,459.295624 296.235504,459.480225 296.772034,459.959656 
	C296.533569,460.064209 296.148010,459.873962 295.609558,459.397369 
z"/>
<path fill="#2D1238" opacity="1.000000" stroke="none" 
	d="
M488.440155,37.925545 
	C488.498505,38.043156 488.539154,38.019344 488.559479,38.032936 
	C488.579803,38.046532 488.583862,37.690399 488.583862,37.690399 
	C488.583862,37.690399 488.381805,37.807934 488.440155,37.925545 
z"/>
<path fill="#361F3D" opacity="1.000000" stroke="none" 
	d="
M657.190247,287.493683 
	C656.958801,287.632294 656.597656,287.499512 656.097412,287.103485 
	C656.325684,286.967621 656.693115,287.094940 657.190247,287.493683 
z"/>
<path fill="#361F3D" opacity="1.000000" stroke="none" 
	d="
M658.300537,288.357666 
	C658.067322,288.479126 657.708008,288.363708 657.283447,287.951843 
	C657.536926,287.810547 657.855652,287.965668 658.300537,288.357666 
z"/>
<path fill="#1D1022" opacity="1.000000" stroke="none" 
	d="
M743.775024,449.338593 
	C743.666809,449.105957 743.766541,448.767120 744.162598,448.438110 
	C744.401001,448.770569 744.242371,449.032043 743.775024,449.338593 
z"/>
<path fill="#1D1022" opacity="1.000000" stroke="none" 
	d="
M744.694214,448.301392 
	C744.581604,448.081787 744.688049,447.731201 745.086975,447.329346 
	C745.224121,447.575500 745.068726,447.872925 744.694214,448.301392 
z"/>
<path fill="#361F3D" opacity="1.000000" stroke="none" 
	d="
M674.595215,299.518585 
	C674.322815,299.642670 673.876221,299.468781 673.320618,298.938904 
	C673.614746,298.795471 674.017944,299.008026 674.595215,299.518585 
z"/>
<path fill="#361F3D" opacity="1.000000" stroke="none" 
	d="
M676.212524,300.437439 
	C675.992798,300.575897 675.616760,300.455200 675.087036,300.068604 
	C675.307556,299.927887 675.681885,300.053070 676.212524,300.437439 
z"/>
<path fill="#502857" opacity="1.000000" stroke="none" 
	d="
M345.647339,303.838806 
	C345.725098,304.081055 345.517426,304.407318 345.018341,304.808777 
	C344.938599,304.563568 345.150269,304.243164 345.647339,303.838806 
z"/>
<path fill="#502857" opacity="1.000000" stroke="none" 
	d="
M338.625122,308.815063 
	C338.675812,309.081940 338.447266,309.391541 337.911560,309.672485 
	C337.851532,309.381805 338.098724,309.119781 338.625122,308.815063 
z"/>
<path fill="#1D1022" opacity="1.000000" stroke="none" 
	d="
M757.268066,365.563080 
	C757.087097,365.612732 756.852051,365.446747 756.759460,365.155945 
	C756.901855,365.031128 757.214111,365.347473 757.268066,365.563080 
z"/>
<path fill="#361F3D" opacity="1.000000" stroke="none" 
	d="
M745.196899,347.520508 
	C744.970337,347.630920 744.629578,347.484436 744.191406,347.065918 
	C744.423584,346.950439 744.753052,347.106995 745.196899,347.520508 
z"/>
<path fill="#44204C" opacity="1.000000" stroke="none" 
	d="
M537.982666,39.389969 
	C539.077820,39.272694 540.241821,39.457275 541.405823,39.641861 
	C541.118103,40.069771 540.830322,40.497677 540.206970,40.971313 
	C539.264771,40.575298 538.658203,40.133560 537.982666,39.389969 
z"/>
<path fill="#271130" opacity="1.000000" stroke="none" 
	d="
M517.860840,410.997162 
	C541.525574,412.354340 565.025208,427.165466 569.473022,452.674988 
	C572.848328,472.033112 566.818054,488.712158 549.695740,501.046997 
	C527.928040,516.728394 504.602264,517.103821 481.829620,504.087463 
	C466.247070,495.180817 457.412842,481.398438 456.694183,462.199341 
	C455.880127,440.449646 472.367462,421.708710 490.551453,414.886810 
	C499.303345,411.603455 508.231476,410.845306 517.860840,410.997162 
z"/>
</svg>